<svg width="143" height="35" viewBox="0 0 143 35" fill="none" xmlns="http://www.w3.org/2000/svg">
<path fill-rule="evenodd" clip-rule="evenodd" d="M76.4631 0.859375H142.736C142.738 0.859375 142.737 16.0316 142.736 23.4236V26.982C142.736 27.1131 142.629 27.214 142.497 27.214C127.675 27.1616 112.8 27.1786 97.9441 27.1957C90.7798 27.2048 83.6195 27.2127 76.4722 27.214C75.9398 27.214 75.4361 27.4513 75.0968 27.8617L70.2292 33.7643C69.8926 34.1747 69.3876 34.4133 68.8564 34.4133H0.249223C0.186458 34.4133 0.126244 34.3884 0.0817412 34.3439C0.0372379 34.2994 0.0120636 34.2391 0.0117188 34.176V8.237C0.0117188 8.10589 0.103066 7.99969 0.233563 7.99969H68.8369C69.3641 7.99969 69.8495 7.76631 70.1888 7.36118L75.0968 1.49789C75.4361 1.09406 75.9359 0.859375 76.4631 0.859375ZM30.3234 29.0483C28.7523 29.0483 27.3325 28.7074 26.064 28.0282C24.8441 27.3815 23.8206 26.4157 23.1018 25.2329C22.3945 24.0333 22.0421 22.6894 22.0421 21.2013C22.0421 19.7132 22.3945 18.3758 23.1018 17.1919C23.8153 15.9988 24.8396 15.0241 26.064 14.373C27.3325 13.6952 28.7523 13.3556 30.3234 13.3556C31.8946 13.3556 33.3066 13.6952 34.5607 14.373C35.7851 15.0241 36.8094 15.9988 37.5229 17.1919C38.2433 18.3758 38.6034 19.7132 38.6034 21.2013C38.6034 22.6894 38.2433 24.0333 37.5229 25.2329C36.8041 26.4157 35.7806 27.3815 34.5607 28.0282C33.3079 28.7074 31.8946 29.0483 30.3234 29.0483ZM30.3234 26.0563C31.216 26.0563 32.0238 25.8544 32.7441 25.4493C33.4658 25.0297 34.0269 24.4528 34.4315 23.7147C34.8491 22.9791 35.0578 22.1413 35.0578 21.2013C35.0578 20.2625 34.8491 19.4234 34.4315 18.6866C34.0434 17.9655 33.4579 17.3713 32.7441 16.9742C32.0077 16.5508 31.1718 16.3335 30.3234 16.3449C29.4295 16.3449 28.6218 16.5547 27.9014 16.9742C27.1848 17.3746 26.5934 17.9675 26.1932 18.6866C25.7887 19.4234 25.5877 20.2625 25.5877 21.2013C25.5877 22.14 25.79 22.9778 26.1932 23.7147C26.6108 24.4528 27.1811 25.0297 27.9014 25.4493C28.6427 25.8591 29.4774 26.0683 30.3234 26.0563ZM19.2939 13.6139C19.3591 13.6139 19.4113 13.6676 19.4113 13.7332V28.668C19.4113 28.7336 19.3591 28.7874 19.2939 28.7874H16.5926C16.5751 28.7874 16.5579 28.7836 16.5421 28.7761C16.5263 28.7686 16.5123 28.7577 16.5013 28.7441L8.99118 19.5755V28.668C8.99118 28.7336 8.93898 28.7874 8.87243 28.7874H5.65047C5.61932 28.7874 5.58945 28.7749 5.56742 28.7528C5.5454 28.7307 5.53302 28.7006 5.53302 28.6694V13.7319C5.53302 13.6663 5.58522 13.6139 5.65047 13.6139H8.37263C8.3901 13.6138 8.40736 13.6176 8.42316 13.6251C8.43897 13.6326 8.45291 13.6435 8.46397 13.6571L15.9532 22.8257V13.7319C15.9532 13.6663 16.0054 13.6139 16.0719 13.6139H19.2939ZM39.436 16.476H44.16V28.6694C44.16 28.7349 44.2122 28.7874 44.2787 28.7874H47.5437C47.5593 28.7875 47.5747 28.7846 47.5891 28.7788C47.6035 28.7729 47.6166 28.7642 47.6276 28.7533C47.6387 28.7423 47.6475 28.7292 47.6534 28.7148C47.6594 28.7004 47.6625 28.685 47.6625 28.6694V16.476H52.3865C52.4021 16.4764 52.4177 16.4736 52.4322 16.4678C52.4468 16.462 52.46 16.4534 52.4712 16.4424C52.4824 16.4314 52.4913 16.4183 52.4973 16.4038C52.5034 16.3893 52.5065 16.3737 52.5065 16.358V13.7332C52.5065 13.7176 52.5034 13.7021 52.4975 13.6877C52.4915 13.6733 52.4827 13.6602 52.4717 13.6493C52.4606 13.6383 52.4475 13.6296 52.4331 13.6238C52.4187 13.6179 52.4033 13.615 52.3878 13.6152H39.436C39.4205 13.615 39.4051 13.6179 39.3907 13.6238C39.3763 13.6296 39.3632 13.6383 39.3521 13.6493C39.3411 13.6602 39.3323 13.6733 39.3263 13.6877C39.3203 13.7021 39.3173 13.7176 39.3173 13.7332V16.3567C39.3173 16.4223 39.3694 16.476 39.4347 16.476H39.436ZM63.6287 25.6092C63.6196 25.5873 63.6042 25.5686 63.5845 25.5555C63.5647 25.5424 63.5415 25.5355 63.5178 25.5358H56.6498C56.6263 25.5356 56.6033 25.5425 56.5838 25.5556C56.5642 25.5687 56.549 25.5874 56.5402 25.6092L55.2613 28.7139C55.2524 28.736 55.237 28.7548 55.2172 28.7679C55.1974 28.781 55.1741 28.7878 55.1504 28.7874H51.8253C51.8056 28.7876 51.7861 28.7828 51.7687 28.7734C51.7513 28.7641 51.7366 28.7505 51.7258 28.7339C51.715 28.7173 51.7085 28.6983 51.707 28.6785C51.7055 28.6587 51.7089 28.6389 51.717 28.6208L58.3567 13.686C58.366 13.6649 58.3812 13.647 58.4004 13.6345C58.4196 13.6219 58.4421 13.6152 58.465 13.6152H61.7705C61.8175 13.6152 61.8605 13.6414 61.8788 13.6847L68.5406 28.6208C68.5487 28.6389 68.5522 28.6587 68.5507 28.6785C68.5491 28.6983 68.5427 28.7173 68.5319 28.7339C68.5211 28.7505 68.5063 28.7641 68.4889 28.7734C68.4715 28.7828 68.452 28.7876 68.4323 28.7874H65.0185C64.995 28.7875 64.9721 28.7806 64.9525 28.7675C64.933 28.7544 64.9178 28.7358 64.9089 28.7139L63.6287 25.6092ZM62.4947 22.869L60.0949 17.0608L57.6951 22.869H62.4947ZM88.1086 13.8604C88.0107 13.8223 87.9977 13.6807 88.0877 13.6244C88.6045 13.3097 89.0129 12.9032 89.3117 12.405C89.6732 11.8281 89.8546 11.1726 89.8546 10.4384C89.8546 9.2282 89.3561 8.26977 88.3591 7.56309C87.3765 6.85771 85.9606 6.50502 84.1102 6.50502H76.8154C76.7843 6.50502 76.7544 6.51745 76.7324 6.53958C76.7103 6.56171 76.698 6.59172 76.698 6.62302V21.5146C76.698 21.5802 76.7502 21.6326 76.8154 21.6326H84.5434C86.523 21.6326 88.0264 21.2786 89.0521 20.5732C90.0934 19.8534 90.6128 18.8295 90.6128 17.5052C90.6128 16.5691 90.3675 15.7838 89.8755 15.1492C89.4212 14.5587 88.808 14.1115 88.1086 13.8604ZM80.1874 9.25966C80.1874 9.19411 80.2396 9.14166 80.3049 9.14166H83.6769C84.5434 9.14166 85.2011 9.29244 85.6487 9.59531C86.0976 9.88375 86.3208 10.323 86.3208 10.913C86.3208 11.503 86.0976 11.9501 85.6487 12.2529C85.2011 12.5558 84.5434 12.7079 83.6769 12.7079H80.3062C80.2905 12.7081 80.275 12.7051 80.2605 12.6992C80.246 12.6932 80.2329 12.6844 80.2218 12.6733C80.2108 12.6622 80.202 12.649 80.1961 12.6344C80.1902 12.6199 80.1873 12.6043 80.1874 12.5886V9.25966ZM86.3651 18.5423C85.9019 18.8439 85.2089 18.996 84.2837 18.996H80.3062C80.2906 18.9961 80.2752 18.9932 80.2608 18.9874C80.2464 18.9815 80.2333 18.9729 80.2223 18.9619C80.2113 18.9509 80.2025 18.9378 80.1965 18.9234C80.1905 18.909 80.1874 18.8936 80.1874 18.878V15.3773C80.1874 15.3104 80.2396 15.258 80.3049 15.258H84.285C86.1472 15.258 87.0803 15.8834 87.0803 17.1381C87.0803 17.7714 86.8415 18.2395 86.3651 18.5423ZM105.02 18.9422C105.02 18.9266 105.017 18.9112 105.011 18.8968C105.005 18.8824 104.996 18.8693 104.985 18.8583C104.974 18.8473 104.961 18.8387 104.946 18.8328C104.932 18.827 104.916 18.824 104.901 18.8242H96.8792C96.8637 18.8242 96.8483 18.8211 96.834 18.8151C96.8197 18.8091 96.8067 18.8003 96.7957 18.7892C96.7848 18.7781 96.7762 18.7649 96.7703 18.7505C96.7645 18.736 96.7616 18.7205 96.7618 18.7049V15.4402C96.7618 15.3747 96.814 15.3222 96.8792 15.3222H103.687C103.718 15.3222 103.748 15.3098 103.77 15.2877C103.792 15.2656 103.805 15.2355 103.805 15.2042V12.7171C103.805 12.6858 103.792 12.6558 103.77 12.6336C103.748 12.6115 103.718 12.5991 103.687 12.5991H96.8805C96.8647 12.5994 96.8489 12.5965 96.8342 12.5906C96.8195 12.5847 96.8061 12.5758 96.7949 12.5645C96.7836 12.5533 96.7748 12.5398 96.7689 12.525C96.763 12.5102 96.7601 12.4944 96.7605 12.4784V9.43142C96.7605 9.36586 96.814 9.31342 96.8792 9.31342H104.618C104.633 9.31377 104.649 9.31094 104.664 9.30508C104.678 9.29923 104.692 9.29047 104.703 9.27934C104.714 9.26821 104.723 9.25493 104.729 9.24028C104.735 9.22564 104.738 9.20994 104.738 9.19411V6.62171C104.738 6.6061 104.735 6.59065 104.729 6.57625C104.723 6.56184 104.714 6.54878 104.703 6.5378C104.692 6.52683 104.679 6.51816 104.664 6.51231C104.65 6.50646 104.635 6.50354 104.619 6.50371H93.3885C93.373 6.50371 93.3578 6.50676 93.3435 6.51269C93.3293 6.51862 93.3163 6.52731 93.3054 6.53827C93.2945 6.54923 93.2859 6.56224 93.28 6.57655C93.2741 6.59087 93.271 6.60621 93.271 6.62171V21.5146C93.271 21.5802 93.3232 21.6326 93.3885 21.6326H104.898C104.914 21.633 104.929 21.6302 104.944 21.6244C104.959 21.6186 104.972 21.61 104.983 21.599C104.994 21.588 105.003 21.5749 105.009 21.5604C105.015 21.5459 105.018 21.5303 105.018 21.5146L105.02 18.9422ZM121.61 6.50502C121.675 6.50502 121.728 6.55746 121.728 6.62302V21.5146C121.728 21.5302 121.725 21.5457 121.719 21.5601C121.713 21.5745 121.705 21.5876 121.694 21.5985C121.682 21.6095 121.669 21.6182 121.655 21.624C121.641 21.6299 121.625 21.6328 121.61 21.6326H118.902C118.884 21.6327 118.867 21.6288 118.851 21.6214C118.835 21.6139 118.822 21.6029 118.81 21.5894L111.281 12.4483V21.5146C111.281 21.5802 111.229 21.6326 111.162 21.6326H107.932C107.917 21.6328 107.901 21.6299 107.887 21.624C107.873 21.6182 107.859 21.6095 107.848 21.5985C107.837 21.5876 107.829 21.5745 107.823 21.5601C107.817 21.5457 107.814 21.5302 107.814 21.5146V6.62302C107.814 6.55746 107.866 6.50502 107.931 6.50502H110.661C110.698 6.50502 110.73 6.52075 110.754 6.54829L118.261 15.6894V6.62302C118.261 6.55746 118.313 6.50502 118.38 6.50502H121.61ZM137.066 18.9422C137.066 18.9266 137.063 18.9112 137.057 18.8968C137.051 18.8824 137.042 18.8693 137.031 18.8583C137.02 18.8473 137.007 18.8387 136.992 18.8328C136.978 18.827 136.962 18.824 136.947 18.8242H128.927C128.911 18.8244 128.895 18.8214 128.881 18.8155C128.866 18.8096 128.853 18.8008 128.842 18.7897C128.831 18.7786 128.822 18.7653 128.816 18.7508C128.811 18.7362 128.808 18.7206 128.808 18.7049V15.4402C128.808 15.3747 128.86 15.3222 128.927 15.3222H135.735C135.798 15.3222 135.853 15.2698 135.853 15.2042V12.7171C135.853 12.6515 135.798 12.5991 135.735 12.5991H128.927C128.911 12.5992 128.895 12.5962 128.881 12.5902C128.866 12.5842 128.853 12.5753 128.842 12.5641C128.831 12.5528 128.822 12.5394 128.816 12.5247C128.81 12.51 128.807 12.4943 128.808 12.4784V9.43142C128.808 9.36586 128.86 9.31342 128.927 9.31342H136.666C136.732 9.31342 136.784 9.25966 136.784 9.19411V6.62171C136.784 6.59041 136.771 6.5604 136.749 6.53827C136.727 6.51614 136.697 6.50371 136.666 6.50371H125.437C125.422 6.50354 125.406 6.50646 125.392 6.51231C125.377 6.51816 125.364 6.52683 125.353 6.5378C125.342 6.54878 125.333 6.56184 125.327 6.57625C125.321 6.59065 125.318 6.6061 125.318 6.62171V21.5146C125.318 21.5802 125.372 21.6326 125.437 21.6326H136.947C136.962 21.6328 136.978 21.6299 136.992 21.624C137.007 21.6182 137.02 21.6095 137.031 21.5985C137.042 21.5876 137.051 21.5745 137.057 21.5601C137.063 21.5457 137.066 21.5302 137.066 21.5146V18.9422Z" fill="#161616"/>
</svg>
